name ./resultDataOpenSim/trcMotMarkerGrf/sub09/grf-04-09.mot
datacolumns 19
datarows 17
range 1.52400000 1.58800000
endheader

                time	     ground_force_vx	     ground_force_vy	     ground_force_vz	     ground_force_px	     ground_force_py	     ground_force_pz	   l_ground_force_vx	   l_ground_force_vy	   l_ground_force_vz	   l_ground_force_px	   l_ground_force_py	   l_ground_force_pz	     ground_torque_x	     ground_torque_y	     ground_torque_z	   l_ground_torque_x	   l_ground_torque_y	   l_ground_torque_z	
          1.52400000	        -41.75433516	        477.35847681	         -9.40800525	          1.10720393	          0.00000000	          0.10914830	          0.00000000	          0.00000000	          0.00000000	          0.00000000	          0.00000000	          0.00000000	          0.00000000	          1.98199261	          0.00000000	          0.00000000	          0.00000000	          0.00000000	
          1.52800000	        -41.04580442	        477.41632401	         -9.04202665	          1.10847689	          0.00000000	          0.10885753	          0.00000000	          0.00000000	          0.00000000	          0.00000000	          0.00000000	          0.00000000	          0.00000000	          2.00420389	          0.00000000	          0.00000000	          0.00000000	          0.00000000	
          1.53200000	        -38.51596287	        477.43079463	         -9.36395030	          1.10937225	          0.00000000	          0.10860279	          0.00000000	          0.00000000	          0.00000000	          0.00000000	          0.00000000	          0.00000000	          0.00000000	          1.87856315	          0.00000000	          0.00000000	          0.00000000	          0.00000000	
          1.53600000	        -34.60313845	        477.37025287	        -10.22094005	          1.10997469	          0.00000000	          0.10837629	          0.00000000	          0.00000000	          0.00000000	          0.00000000	          0.00000000	          0.00000000	          0.00000000	          1.63920836	          0.00000000	          0.00000000	          0.00000000	          0.00000000	
          1.54000000	        -30.07563987	        477.21742709	        -11.35869020	          1.11040535	          0.00000000	          0.10816641	          0.00000000	          0.00000000	          0.00000000	          0.00000000	          0.00000000	          0.00000000	          0.00000000	          1.34751737	          0.00000000	          0.00000000	          0.00000000	          0.00000000	
          1.54400000	        -25.82377088	        477.00126283	        -12.47574803	          1.11079718	          0.00000000	          0.10795362	          0.00000000	          0.00000000	          0.00000000	          0.00000000	          0.00000000	          0.00000000	          0.00000000	          1.07697851	          0.00000000	          0.00000000	          0.00000000	          0.00000000	
          1.54800000	        -22.62793876	        476.80370758	        -13.28828168	          1.11125738	          0.00000000	          0.10771077	          0.00000000	          0.00000000	          0.00000000	          0.00000000	          0.00000000	          0.00000000	          0.00000000	          0.89609045	          0.00000000	          0.00000000	          0.00000000	          0.00000000	
          1.55200000	        -20.94886681	        476.72238845	        -13.58157273	          1.11184813	          0.00000000	          0.10741613	          0.00000000	          0.00000000	          0.00000000	          0.00000000	          0.00000000	          0.00000000	          0.00000000	          0.85336367	          0.00000000	          0.00000000	          0.00000000	          0.00000000	
          1.55600000	        -20.80765380	        476.82170058	        -13.23913809	          1.11257603	          0.00000000	          0.10706982	          0.00000000	          0.00000000	          0.00000000	          0.00000000	          0.00000000	          0.00000000	          0.00000000	          0.96766054	          0.00000000	          0.00000000	          0.00000000	          0.00000000	
          1.56000000	        -21.80013827	        477.11516993	        -12.25793708	          1.11338287	          0.00000000	          0.10669614	          0.00000000	          0.00000000	          0.00000000	          0.00000000	          0.00000000	          0.00000000	          0.00000000	          1.22557366	          0.00000000	          0.00000000	          0.00000000	          0.00000000	
          1.56400000	        -23.22958309	        477.58068169	        -10.75082449	          1.11417845	          0.00000000	          0.10633049	          0.00000000	          0.00000000	          0.00000000	          0.00000000	          0.00000000	          0.00000000	          0.00000000	          1.58578943	          0.00000000	          0.00000000	          0.00000000	          0.00000000	
          1.56800000	        -24.30467736	        478.18248301	         -8.93448110	          1.11487282	          0.00000000	          0.10600301	          0.00000000	          0.00000000	          0.00000000	          0.00000000	          0.00000000	          0.00000000	          0.00000000	          1.98886747	          0.00000000	          0.00000000	          0.00000000	          0.00000000	
          1.57200000	        -24.34976760	        478.88227426	         -7.10469482	          1.11538134	          0.00000000	          0.10573464	          0.00000000	          0.00000000	          0.00000000	          0.00000000	          0.00000000	          0.00000000	          0.00000000	          2.36993578	          0.00000000	          0.00000000	          0.00000000	          0.00000000	
          1.57600000	        -22.98169963	        479.64470796	         -5.59431745	          1.11566196	          0.00000000	          0.10554682	          0.00000000	          0.00000000	          0.00000000	          0.00000000	          0.00000000	          0.00000000	          0.00000000	          2.67156794	          0.00000000	          0.00000000	          0.00000000	          0.00000000	
          1.58000000	        -20.20362012	        480.45535072	         -4.71346949	          1.11572404	          0.00000000	          0.10545820	          0.00000000	          0.00000000	          0.00000000	          0.00000000	          0.00000000	          0.00000000	          0.00000000	          2.85439281	          0.00000000	          0.00000000	          0.00000000	          0.00000000	
          1.58400000	        -16.38394320	        481.34653122	         -4.68970200	          1.11562469	          0.00000000	          0.10547016	          0.00000000	          0.00000000	          0.00000000	          0.00000000	          0.00000000	          0.00000000	          0.00000000	          2.90356757	          0.00000000	          0.00000000	          0.00000000	          0.00000000	
          1.58800000	        -12.13374002	        482.40273820	         -5.62537949	          1.11544347	          0.00000000	          0.10556137	          0.00000000	          0.00000000	          0.00000000	          0.00000000	          0.00000000	          0.00000000	          0.00000000	          2.83004491	          0.00000000	          0.00000000	          0.00000000	          0.00000000	
